<svg width="194" height="106" viewBox="0 0 194 106" fill="none" xmlns="http://www.w3.org/2000/svg">
    <g clip-path="url(#clip0_39_82)">
        <path d="M88.3946 23.5362L9.22498 36.5337C4.26828 37.3241 0.275373 40.0465 0.275373 42.6811L0 64.4608C0 67.0076 3.9929 69.73 8.94961 70.5204L87.7062 82.991C92.6629 83.7814 100.649 83.7814 105.605 82.9032L184.775 69.9935C189.732 69.2031 193.725 66.4806 193.725 63.846L194 42.0664C194 39.5196 190.007 36.7971 185.05 36.0067L106.294 23.5362C101.337 22.7458 93.3513 22.7458 88.3946 23.5362Z"
              fill="#FF8126"/>
        <path d="M96.5181 81.4102C93.3513 81.4102 90.3222 81.2345 88.1192 80.8832L14.4571 69.6422C9.22498 68.8518 5.09439 66.0415 5.09439 63.319L5.36976 43.7349C5.36976 41.0125 9.50035 38.2022 14.8701 37.324L88.8077 25.6438C91.1483 25.2925 94.3151 25.0291 97.7573 25.0291C100.924 25.0291 103.953 25.2047 106.156 25.556L179.681 36.7093C184.913 37.4996 189.043 40.3099 189.043 43.0324L188.768 62.6165C188.768 65.3389 184.637 68.1492 179.268 69.0274L105.33 80.7954C102.989 81.1467 99.8226 81.4102 96.5181 81.4102ZM97.4819 26.7855C94.4528 26.7855 91.4237 26.9611 89.2207 27.3124L15.4209 38.9926C11.428 39.6073 8.12349 41.8029 7.9858 43.6471L7.84812 63.319C7.84812 65.2511 11.1526 67.3588 15.1455 67.9735L88.67 79.1268C90.7353 79.4781 93.489 79.6537 96.5181 79.6537C99.5472 79.6537 102.576 79.4781 104.779 79.1268L178.717 67.4466C182.71 66.8319 186.014 64.6363 186.014 62.7921L186.29 43.208C186.29 41.2759 182.985 39.1682 178.992 38.5535L105.33 27.3124C103.265 26.9611 100.511 26.7855 97.4819 26.7855Z"
              fill="white"/>
        <path d="M77.242 52.3414C78.2058 52.2536 79.0319 52.078 79.9958 51.9023C82.061 51.4632 83.3002 50.7607 83.851 49.8824C84.1263 49.3555 84.264 48.9164 84.264 48.3895C84.264 47.16 83.3002 46.194 81.2349 45.5792C79.5827 45.0523 77.3797 44.7888 74.4883 44.7888C70.6331 44.7888 67.1909 45.2279 64.1618 46.0183C62.6473 46.4574 61.4081 46.9843 60.1689 47.5991C58.5167 48.4773 57.6906 49.5312 57.6906 50.4972C57.6906 51.551 58.5167 52.2536 60.1689 52.5171C60.3066 52.5171 60.7197 52.5171 60.7197 52.3414V52.1658L60.582 52.078C60.3066 51.9023 60.0312 51.8145 59.8935 51.7267C59.6182 51.4632 59.4805 51.1998 59.4805 50.8485C59.4805 50.3215 60.0312 49.619 61.2704 48.8286C62.5096 48.0382 63.8865 47.4235 65.2633 46.9843C68.017 46.194 71.1838 45.7548 74.626 45.7548C76.829 45.7548 78.4812 45.9305 79.7204 46.3696C81.0972 46.8087 81.7857 47.4234 81.7857 48.3895C81.7857 48.7408 81.648 49.1799 81.3726 49.619C80.9596 50.3215 80.1334 50.8485 78.6189 51.1998C77.5174 51.4632 76.1405 51.6389 74.7637 51.6389C74.4883 51.6389 74.0752 51.6389 73.5245 51.6389C73.3868 51.6389 73.2491 51.551 73.1114 51.551C72.9737 51.551 72.8361 51.4632 72.5607 51.4632C71.7346 51.2876 70.9085 51.3754 70.4954 51.7267C70.3577 51.7267 70.22 51.8145 70.22 51.9901C70.22 52.4293 71.1838 52.5171 72.0099 52.6049C72.9737 52.6927 73.6622 52.7805 74.0752 52.7805C74.9014 52.9562 75.7275 53.3075 76.2782 53.7466C76.829 54.1857 77.1043 54.6248 77.1043 55.0639C77.1043 55.503 76.9667 55.9421 76.5536 56.3812C75.7275 57.3472 74.626 58.1376 72.9737 58.7524C71.4592 59.3671 69.807 59.7184 68.2924 59.7184C65.8141 59.7184 63.8864 58.928 62.6473 57.4351C64.7126 56.2056 67.0532 54.537 69.3939 52.4293C69.6693 52.1658 70.9085 51.3754 72.6984 50.2337C74.4883 49.0921 75.7275 48.3895 76.4159 48.2138C77.5174 48.126 77.6551 47.7747 77.6551 47.5113C77.6551 47.3356 77.5174 47.0722 77.1043 46.8965C76.4159 46.6331 75.4521 46.6331 74.4883 46.8965C73.2491 47.16 70.9085 48.8286 67.1909 51.9023L64.1618 54.4491C63.3357 55.2395 62.5096 55.8543 61.9588 56.2056L61.2704 54.4491C60.8573 53.6587 60.3066 53.3075 59.4805 53.3075C59.2051 53.3075 58.9297 53.3075 58.5167 53.3953C57.6906 53.6587 56.8644 54.2735 55.763 55.4152C54.7991 56.5568 54.2484 57.5229 54.2484 58.3133C54.2484 59.1915 54.6615 59.7184 55.4876 59.9819C56.4514 60.3332 58.2413 59.8062 60.8573 58.4011C62.2342 59.8062 64.7126 60.5966 68.1547 60.5966C70.4954 60.5966 72.8361 60.2453 75.039 59.5428C77.242 58.8402 78.7566 57.962 79.5827 56.9081C79.9958 56.469 80.1334 55.9421 80.1334 55.3273C80.1334 54.4491 79.5827 53.6587 78.6189 53.044C78.2058 52.6927 77.6551 52.4293 77.242 52.3414ZM56.176 58.1376C56.176 57.2594 57.0021 56.1177 58.5167 54.7126C58.6544 54.8004 59.2051 55.1517 60.3066 57.3472C57.9659 58.8402 57.0021 59.1037 56.5891 59.1037C56.3137 58.8402 56.176 58.4889 56.176 58.1376Z"
              fill="white"/>
        <path d="M142.643 52.8683C142.092 52.8683 141.542 53.0439 140.991 53.3952C140.578 53.7465 140.165 54.01 140.027 54.1856C138.925 54.8882 137.273 55.7664 135.208 56.8202C131.628 58.5766 130.94 58.401 130.94 58.3132C130.94 58.0497 131.353 57.435 133.831 55.7664C136.86 53.6587 136.86 53.5708 136.86 53.3952C136.86 53.1317 136.723 52.6926 135.346 52.6926C134.795 52.6926 133.831 52.9561 131.49 54.8882C131.215 55.1516 130.94 55.4151 130.664 55.6786C130.527 55.7664 130.251 56.0298 129.838 56.2933C129.15 56.8202 128.324 57.2593 127.498 57.6106C126.121 58.3132 124.881 58.5766 123.918 58.5766C123.092 58.5766 122.816 58.3132 122.816 57.7863C122.816 57.1715 123.505 56.2933 124.881 55.1516L127.222 53.3074V53.2196C127.36 53.0439 127.36 52.8683 126.947 52.6048C126.671 52.4292 126.396 52.3414 126.121 52.3414C125.845 52.3414 125.708 52.3414 125.57 52.4292L124.744 52.7805C124.331 52.9561 123.918 53.0439 123.642 53.0439C123.092 53.0439 122.954 52.9561 122.954 52.8683L123.642 52.2535C124.193 51.7266 124.606 51.3753 124.606 51.024C124.606 50.5849 124.193 50.4093 123.505 50.4093C122.541 50.4093 121.852 51.1119 121.302 52.3414C120.476 53.3074 119.236 54.4491 117.309 55.8542C116.483 56.3811 115.657 56.908 114.693 57.435C113.04 58.3132 111.664 58.8401 110.7 58.8401C109.736 58.8401 109.461 58.5766 109.461 57.9619C109.461 57.6106 109.598 57.3472 109.736 56.9959C109.874 56.9959 109.874 56.9959 110.011 56.9959C111.251 56.9959 112.765 56.6446 114.83 55.8542C116.758 55.0638 117.859 54.2734 117.859 53.3952C117.859 53.0439 117.722 52.7805 117.309 52.6048C116.896 52.4292 116.483 52.2535 115.794 52.2535C114.142 52.2535 112.352 52.9561 110.287 54.2734C108.91 55.1516 108.084 56.0298 107.671 56.7324C106.982 57.1715 106.294 57.5228 105.743 57.7863C104.642 58.3132 103.678 58.5766 102.989 58.5766C101.75 58.5766 100.786 57.7863 100.236 56.1177C100.786 56.2933 101.475 56.3811 102.576 56.3811C103.678 56.3811 105.055 56.1177 106.294 55.6786C107.946 55.1516 108.91 54.3612 109.185 53.483V53.3952C109.185 53.0439 108.91 52.6926 108.359 52.3414C107.808 51.9022 107.12 51.7266 106.294 51.7266C105.33 51.7266 104.091 51.9022 102.439 52.3414C102.852 51.9901 103.402 51.551 104.229 50.9362C106.569 49.092 106.569 49.0042 106.569 48.9163C106.569 48.6529 106.294 48.3894 105.192 48.3894C104.779 48.3894 104.642 48.3894 104.504 48.4772C103.402 49.0042 101.475 50.5849 98.5834 53.3952C98.0327 54.01 97.4819 54.4491 97.0689 54.976C93.3513 57.8741 91.8368 58.4888 91.0107 58.4888C90.873 58.4888 90.7353 58.4888 90.5976 58.1375C90.5976 58.1375 90.5976 58.1375 90.5976 58.0497C90.5976 57.6984 91.0107 56.9959 92.6629 55.5029C94.7282 53.483 94.7282 53.3952 94.7282 53.3074C94.7282 53.1317 94.5905 53.0439 94.3151 52.8683C94.0398 52.6926 93.7644 52.6048 93.3513 52.6048H93.2136L93.0759 52.3414C92.2498 51.9901 91.5614 51.8144 90.7353 51.8144C88.8077 51.8144 86.6047 52.6048 84.264 54.01C81.9234 55.5029 80.8219 56.7324 80.8219 57.8741C80.8219 58.401 81.2349 58.8401 81.9234 59.1914C82.4741 59.4549 83.1625 59.6305 83.851 59.6305C84.5394 59.6305 85.5032 59.2792 86.8801 58.4888L88.2569 57.6106V57.6984C88.2569 58.4888 88.8077 59.0158 89.9092 59.2792C91.0107 59.5427 92.3875 59.1914 94.0398 58.1375C93.9021 58.3132 93.9021 58.401 93.9021 58.4888C93.9021 58.9279 94.3151 59.2792 95.2789 59.5427L95.5543 59.6305L95.692 59.4549C96.5181 58.4888 97.0689 57.6984 97.4819 57.3472C98.7211 58.9279 100.236 59.7183 102.026 59.7183C103.265 59.7183 104.642 59.2792 106.432 58.4888C106.569 58.401 106.845 58.3132 106.982 58.2254C107.12 58.9279 107.808 59.4549 109.323 59.7183C109.598 59.8061 109.874 59.8061 110.149 59.8061C111.388 59.8061 112.903 59.367 114.693 58.5766C116.345 57.8741 117.722 56.9959 118.823 56.0298C119.099 55.8542 119.374 55.5907 119.649 55.3273L121.852 53.5708C122.128 53.8343 122.541 54.01 122.954 54.0978C122.541 54.5369 122.128 54.976 121.715 55.5907C121.164 56.2933 120.889 56.9959 120.889 57.6106C120.889 59.2792 122.403 59.6305 123.78 59.6305C125.019 59.6305 126.534 59.1914 128.324 58.3132C128.599 58.2254 128.874 58.0497 129.012 57.9619C129.012 58.0497 129.012 58.0497 129.012 58.1375C129.012 58.4888 129.15 58.7523 129.563 59.0157C130.527 59.7183 132.317 59.4549 134.795 58.2254L138.65 56.2933L137.824 57.435C136.86 58.8401 135.759 60.0696 134.795 60.9478C133.418 62.1773 132.179 62.7921 130.94 62.7921C130.251 62.7921 129.425 62.3529 128.461 61.5626L127.911 61.1235V61.7382C127.911 62.2651 128.186 62.7921 128.737 63.2312C129.287 63.6703 130.114 63.9337 130.802 63.9337C133.005 63.9337 135.346 62.7921 137.549 60.5087C139.063 58.8401 140.027 57.6106 140.715 56.8202C140.715 56.7324 140.991 56.4689 142.23 55.3273C143.745 53.8343 143.745 53.7465 143.745 53.6587C143.745 53.1317 143.331 52.8683 142.643 52.8683ZM101.613 53.6587C103.265 53.0439 104.642 52.6926 105.743 52.6926C105.881 52.6926 106.018 52.6926 106.156 52.7805C106.294 52.8683 106.294 52.8683 106.294 52.9561C106.294 53.5708 105.468 54.0978 103.678 54.6247C102.163 55.1516 100.786 55.4151 99.9603 55.4151C99.4095 55.4151 99.1341 55.4151 98.8588 55.3273C99.2718 54.8003 100.236 54.1856 101.613 53.6587ZM113.316 55.3273C112.077 55.8542 110.975 56.1177 110.287 56.1177C110.975 55.4151 111.939 54.8003 113.178 54.1856C114.417 53.5708 115.106 53.3952 115.381 53.3952C115.794 53.3952 115.932 53.3952 115.932 53.3952V53.483C115.519 54.1856 114.693 54.8003 113.316 55.3273ZM82.8872 58.1375C82.8872 57.3471 83.9887 56.2933 86.1916 54.976C88.3946 53.6587 90.0469 53.0439 91.286 53.0439C91.5614 53.0439 91.6991 53.0439 91.6991 53.1317L88.3946 56.1177C85.7786 58.3132 84.264 58.7523 83.4379 58.7523C83.1625 58.6645 82.8872 58.6645 82.8872 58.1375Z"
              fill="white"/>
        <path d="M49.9801 17.9154C49.9801 17.8276 49.8424 17.8276 49.7047 17.8276C49.5671 17.8276 49.5671 17.8276 49.4294 17.8276L48.3279 18.2667L46.2626 16.159L46.538 16.0712C47.3641 15.7199 47.9148 15.3686 48.6033 15.0173C49.154 14.666 49.5671 14.2269 49.8424 13.7878C50.1178 13.3487 50.2555 12.8218 50.1178 12.3827C49.9801 11.8558 49.7048 11.3288 49.154 10.8019C48.7409 10.3628 48.1902 10.0115 47.6395 9.74807C47.0887 9.4846 46.4003 9.30896 45.7118 9.22114C45.0234 9.13332 44.335 9.13332 43.6466 9.22114C42.9581 9.30896 42.2697 9.4846 41.5813 9.74807C40.7551 10.0993 40.0667 10.3628 39.3783 10.7141C38.6898 11.0654 37.8637 11.3288 37.1753 11.6801C37.0376 11.6801 37.0376 11.7679 37.0376 11.8558C37.0376 11.9436 37.0376 11.9436 37.0376 12.0314L38.4145 13.2609C38.5522 13.3487 38.6898 13.3487 38.8275 13.3487L39.6537 12.9974L46.1249 19.4084L45.1611 19.7597C45.0234 19.7597 45.0234 19.8475 45.0234 19.9353C45.0234 20.0231 45.0234 20.0231 45.0234 20.1109L46.2626 21.2526C46.2626 21.3404 46.4003 21.3404 46.538 21.3404H46.6757L50.8062 19.584C50.9439 19.4962 50.9439 19.4084 50.9439 19.3206L49.9801 17.9154ZM41.9943 11.7679L43.2335 11.241C43.5089 11.1532 43.9219 11.0654 44.1973 10.9776C44.4727 10.9776 44.8857 10.9776 45.1611 10.9776C45.4365 10.9776 45.7119 11.0654 45.9872 11.241C46.2626 11.3288 46.538 11.5045 46.6757 11.6801C47.0887 12.0314 47.2264 12.2949 47.2264 12.5583C47.2264 12.8218 47.2264 13.0853 46.951 13.2609C46.8133 13.5244 46.538 13.7 46.1249 13.8757C45.7118 14.0513 45.2988 14.3148 44.8857 14.4904L44.748 14.5782L41.9943 11.7679Z"
              fill="#605656"/>
        <path d="M68.8432 11.8558C68.7055 11.8558 68.7055 11.8558 68.5678 11.8558L67.1909 12.2071L63.8864 9.66027C64.2995 9.48463 64.5749 9.22117 64.7126 9.04553C64.9879 8.78206 65.1256 8.43078 65.2633 8.07949C65.401 7.72821 65.401 7.37693 65.401 7.02564C65.401 6.67436 65.2633 6.32307 64.9879 5.97179C64.7126 5.44486 64.2995 5.09358 63.7488 4.74229C63.198 4.47883 62.6473 4.21537 62.0965 4.12755C61.4081 4.03973 60.8573 3.9519 60.0312 3.9519C59.3428 3.9519 58.6544 4.12755 57.9659 4.30319C57.1398 4.47883 56.3137 4.74229 55.4876 4.91794C54.6615 5.1814 53.8353 5.35704 53.0092 5.6205C52.8715 5.6205 52.8715 5.70833 52.8715 5.70833C52.8715 5.79615 52.8715 5.79615 52.8715 5.88397L53.8353 7.20128C53.973 7.2891 54.1107 7.37693 54.2484 7.2891L55.2122 7.02564L59.7559 14.227L58.7921 14.4904C58.6544 14.4904 58.6544 14.5783 58.6544 14.5783C58.6544 14.6661 58.6544 14.6661 58.6544 14.7539L59.6182 15.9834C59.6182 16.0712 59.7559 16.0712 59.8935 16.0712H60.0312L64.2995 15.0174C64.4372 15.0174 64.5749 14.8417 64.4372 14.7539L63.7488 13.3488C63.7488 13.2609 63.6111 13.2609 63.6111 13.2609C63.4734 13.2609 63.4734 13.2609 63.3357 13.2609L62.3719 13.5244L60.582 10.8019L61.5458 10.5385L64.7126 13.1731L64.2995 13.2609C64.1618 13.2609 64.1618 13.3488 64.1618 13.3488C64.1618 13.4366 64.1618 13.4366 64.1618 13.5244L65.2633 14.7539C65.401 14.8417 65.5387 14.9295 65.6764 14.8417L69.5316 13.6122C69.6693 13.5244 69.807 13.4366 69.6693 13.3488L68.9808 11.9436C68.9808 11.9436 68.8432 11.8558 68.8432 11.8558ZM59.7559 9.13335L59.4805 9.22117L57.8282 6.41089L59.3428 6.05961C59.6182 5.97179 60.0312 5.88397 60.3066 5.88397C60.582 5.88397 60.8573 5.88397 61.1327 5.97179C61.4081 6.05961 61.6835 6.14743 61.8212 6.23525C62.0965 6.32307 62.2342 6.49871 62.3719 6.76218C62.6473 7.11346 62.6473 7.37693 62.6473 7.64039C62.5096 7.90385 62.3719 8.07949 62.2342 8.25514C61.9588 8.43078 61.6835 8.60642 61.2704 8.69424C60.7197 8.86988 60.1689 9.04552 59.7559 9.13335Z"
              fill="#605656"/>
        <path d="M82.8872 8.16729L81.2349 8.43075C81.0972 8.43075 81.0972 8.51857 80.9596 8.51857C80.9596 8.60639 80.9596 8.60639 80.9596 8.69421L81.3726 10.1872L77.6551 10.7141L76.829 7.816L80.1334 7.28908C80.2711 7.28908 80.4088 7.11343 80.4088 7.02561L80.1334 5.97176C79.8581 5.79612 79.8581 5.79612 79.8581 5.7083C79.7204 5.7083 79.7204 5.7083 79.5827 5.7083L76.2782 6.1474L75.4521 3.24931L79.0319 2.63456L79.7204 3.95188C79.7204 4.0397 79.9957 4.12752 80.1334 4.12752L81.9234 3.86406C82.061 3.86406 82.1987 3.68841 82.1987 3.60059L81.0972 0.702498C81.0972 0.614677 80.8219 0.526855 80.6842 0.526855L71.0461 1.84417C70.9084 1.84417 70.7708 2.01981 70.7708 2.10763L71.0461 3.51277C71.0461 3.60059 71.0461 3.60059 71.1838 3.68841C71.3215 3.68841 71.3215 3.77623 71.4592 3.68841L72.5607 3.51277L74.9014 10.9776L73.7999 11.1532C73.6622 11.1532 73.6622 11.241 73.5245 11.241C73.5245 11.3288 73.5245 11.3288 73.5245 11.4167L74.0752 12.8218C74.0752 12.9096 74.2129 12.9974 74.3506 12.9974C74.3506 12.9974 74.3506 12.9974 74.4883 12.9974L84.1263 11.5923C84.264 11.5923 84.264 11.5045 84.4017 11.5045C84.4017 11.4167 84.4017 11.4167 84.4017 11.3288L83.3002 8.34293C83.3002 8.25511 83.1625 8.16729 82.8872 8.16729Z"
              fill="#605656"/>
        <path d="M105.055 0H99.8226C99.6849 0 99.5472 0.087821 99.5472 0.175642L96.7935 6.85004L95.2789 0.263463C95.2789 0.175642 95.1412 0.087821 95.0036 0.087821L88.9453 0C88.8077 0 88.67 0.087821 88.5323 0.175642L88.3946 1.58078C88.3946 1.6686 88.5323 1.75642 88.67 1.84424L90.4599 1.93206L90.1845 9.30903H88.5323C88.3946 9.30903 88.3946 9.30903 88.2569 9.39685C88.2569 9.39685 88.1192 9.48467 88.1192 9.57249V10.9776C88.1192 11.0655 88.2569 11.1533 88.3946 11.2411L94.0398 11.4167C94.1774 11.4167 94.1774 11.4167 94.3151 11.3289C94.4528 11.2411 94.4528 11.2411 94.4528 11.1533V9.74814C94.4528 9.66032 94.3151 9.57249 94.1774 9.57249H93.0759L93.3513 4.83016L94.8659 10.7142C94.8659 10.802 95.0035 10.8898 95.1412 10.8898H97.4819C97.6196 10.8898 97.7573 10.802 97.7573 10.7142L100.511 4.30323L100.373 9.48467H99.2718C99.1341 9.48467 98.9965 9.57249 98.8588 9.66032L98.7211 11.1533C98.7211 11.2411 98.7211 11.2411 98.8588 11.3289C98.8588 11.3289 98.9965 11.4167 99.1341 11.4167L104.091 11.5046C104.229 11.5046 104.229 11.5046 104.366 11.4167C104.366 11.4167 104.504 11.3289 104.504 11.2411V9.74814C104.504 9.66032 104.366 9.57249 104.229 9.57249H103.402L103.815 1.93206L105.055 2.01988C105.192 2.01988 105.192 2.01988 105.33 1.93206C105.468 1.93206 105.468 1.84424 105.468 1.75642L105.605 0.263463C105.605 0.175642 105.605 0.175642 105.468 0.087821C105.192 0 105.055 0 105.055 0Z"
              fill="#605656"/>
        <path d="M117.722 1.6687L113.04 1.05396C112.903 1.05396 112.627 1.14178 112.627 1.2296L112.077 2.63473C112.077 2.72255 112.077 2.72255 112.077 2.81038C112.077 2.8982 112.214 2.8982 112.352 2.8982L113.454 2.98602L111.113 10.2752L110.011 10.0995C109.874 10.0995 109.874 10.0995 109.736 10.0995C109.598 10.0995 109.598 10.1873 109.598 10.2752L109.185 11.6803C109.185 11.7681 109.323 11.9438 109.461 11.9438L114.28 12.5585C114.417 12.5585 114.555 12.4707 114.555 12.3829L115.106 11.0656C115.106 10.9777 115.106 10.9777 115.106 10.8899C115.106 10.8021 114.968 10.8021 114.83 10.8021L113.454 10.6264L115.932 3.3373L117.309 3.51294C117.446 3.51294 117.446 3.51294 117.584 3.42512C117.722 3.42512 117.722 3.3373 117.722 3.24948L117.997 1.84434C117.997 1.75652 117.859 1.6687 117.722 1.6687Z"
              fill="#605656"/>
        <path d="M136.172 7.20143C136.309 7.20143 136.585 7.20143 136.585 7.02578L137.273 5.70847C137.273 5.62065 137.273 5.445 137.136 5.445L132.592 4.39115C132.454 4.39115 132.179 4.39115 132.179 4.47897L131.215 5.88411C131.215 5.97193 131.215 5.97193 131.215 6.05975C131.215 6.14757 131.353 6.14757 131.353 6.14757L132.454 6.41104L130.251 10.0117C130.114 10.1873 129.976 10.4508 129.838 10.7143C129.701 10.9777 129.425 11.2412 129.287 11.5925C129.012 11.8559 128.874 12.1194 128.599 12.3829C128.324 12.6463 128.048 12.822 127.773 12.9976C127.498 13.1733 127.222 13.2611 126.809 13.3489C126.534 13.4367 126.121 13.3489 125.708 13.2611C125.432 13.1733 125.157 13.0854 125.019 12.9098C124.882 12.7342 124.744 12.5585 124.744 12.3829C124.744 12.2072 124.744 11.9438 124.744 11.6803C124.744 11.4168 124.882 11.1534 125.019 10.9777C125.157 10.7143 125.295 10.5386 125.295 10.2752C125.432 10.0117 125.57 9.83606 125.708 9.66042C126.121 8.87003 126.671 8.16746 127.084 7.46489C127.498 6.76232 128.048 6.14757 128.461 5.445L129.563 5.62065C129.701 5.62065 129.701 5.62065 129.838 5.62065C129.976 5.62065 129.976 5.53283 129.976 5.53283L130.527 4.21551C130.527 4.12769 130.527 3.95205 130.251 3.95205L125.845 2.89819C125.708 2.89819 125.432 2.89819 125.432 2.98601L124.193 4.39115C124.193 4.47897 124.193 4.47897 124.193 4.56679C124.193 4.65461 124.331 4.65461 124.331 4.65461L125.432 4.91808C125.019 5.53283 124.606 6.14757 124.193 6.76232C123.78 7.46489 123.229 8.16746 122.816 8.87003C122.679 9.13349 122.403 9.48477 122.265 9.92388C122.128 10.2752 121.99 10.7143 121.852 11.0656C121.715 11.5047 121.715 11.8559 121.715 12.2072C121.715 12.6463 121.852 12.9976 121.99 13.3489C122.128 13.7002 122.403 14.0515 122.816 14.3149C123.229 14.5784 123.78 14.8419 124.468 15.0175C125.157 15.1931 125.708 15.281 126.258 15.281C126.396 15.281 126.534 15.281 126.671 15.281C127.36 15.1931 127.911 15.1053 128.599 14.9297C129.15 14.754 129.701 14.4906 130.114 14.1393C130.527 13.788 130.94 13.4367 131.353 13.0854C131.766 12.7342 132.041 12.295 132.317 11.8559C132.592 11.4168 132.867 11.0656 133.143 10.7143L135.208 7.02578L136.172 7.20143Z"
              fill="#605656"/>
        <path d="M157.789 13.7001L153.383 11.8559C153.245 11.7681 153.107 11.7681 152.969 11.8559L144.984 16.5104L149.252 10.4508C149.39 10.3629 149.252 10.2751 149.114 10.1873L144.295 8.07959C144.158 7.99177 143.882 8.07959 143.882 8.16741L142.643 9.30908C142.505 9.39691 142.505 9.57255 142.781 9.57255L144.158 10.2751L137.549 16.3348L136.309 15.8078C136.172 15.8078 136.172 15.72 136.034 15.8078C135.896 15.8078 135.896 15.8957 135.759 15.8957L134.52 17.0373C134.382 17.1252 134.52 17.3008 134.657 17.3008L139.201 19.3207C139.339 19.3207 139.339 19.4085 139.476 19.3207C139.614 19.3207 139.614 19.2329 139.752 19.2329L140.991 18.0034C141.128 17.9155 140.991 17.7399 140.853 17.7399L140.027 17.3886L144.295 13.4367L140.578 18.8816C140.578 18.9694 140.578 19.0572 140.715 19.145L142.781 19.9354C142.918 20.0233 143.056 19.9354 143.194 19.9354L150.491 15.72L145.81 20.0233L144.846 19.5841C144.708 19.4963 144.433 19.5841 144.433 19.672L143.056 20.9015C143.056 20.9893 142.918 20.9893 143.056 21.0771C143.056 21.1649 143.194 21.1649 143.194 21.2527L147.324 23.0092H147.462C147.6 23.0092 147.6 22.9213 147.737 22.9213L148.977 21.6919C149.114 21.604 148.977 21.4284 148.839 21.4284L148.15 21.0771L155.035 14.754L155.999 15.1931C156.136 15.1931 156.136 15.2809 156.274 15.1931C156.412 15.1931 156.412 15.1931 156.549 15.1053L157.926 13.8758C157.926 13.788 158.064 13.788 157.926 13.7001C157.926 13.788 157.789 13.788 157.789 13.7001Z"
              fill="#605656"/>
        <path d="M61.1327 85.889C60.4443 85.5378 59.7559 85.2743 58.9297 85.1865C58.2413 85.0987 57.5529 85.0987 56.8644 85.1865C56.176 85.2743 55.4876 85.4499 54.9368 85.7134C54.2484 85.9769 53.6977 86.2403 53.1469 86.5916C52.5962 86.9429 52.0454 87.2064 51.4947 87.6455C50.9439 87.9967 50.5309 88.348 50.1178 88.6993C49.8424 88.9628 49.4294 89.3141 49.154 89.5775C48.8786 89.9288 48.4656 90.2801 48.1902 90.6314C47.9148 90.9827 47.6395 91.4218 47.5018 91.773C47.3641 92.2121 47.2264 92.5634 47.2264 92.9147C47.2264 93.266 47.3641 93.7051 47.6395 94.0564C47.9148 94.4077 48.3279 94.759 48.8786 95.0224C49.0163 95.1102 49.2917 95.1981 49.4294 95.2859C49.5671 95.3737 49.7048 95.3737 49.8424 95.4615C49.8424 95.8128 49.7048 96.0763 49.7048 96.4276C49.7048 96.7788 49.7048 97.2179 49.8424 97.5692C49.8424 97.657 49.9801 97.7449 50.1178 97.7449L52.5962 97.4814C52.7339 97.4814 52.7339 97.3936 52.8715 97.3936C52.8715 97.3058 52.8715 97.3058 52.8715 97.2179C52.7339 97.0423 52.5962 96.7788 52.5962 96.5154C52.5962 96.3397 52.4585 96.0763 52.4585 95.9006C52.8715 95.9006 53.2846 95.8128 53.56 95.725C54.1107 95.6372 54.5238 95.4615 54.9368 95.2859C55.3499 95.1102 55.763 94.9346 56.3137 94.6711C56.7268 94.4077 57.1398 94.232 57.5529 93.9686C57.9659 93.7051 58.2413 93.4416 58.6544 93.1782C58.9297 92.9147 59.3428 92.6513 59.6182 92.4756C59.8935 92.2122 60.3066 91.8609 60.582 91.5974C60.995 91.2461 61.2704 90.8948 61.5458 90.5435C61.8212 90.1923 62.0965 89.7532 62.2342 89.4019C62.3719 88.9628 62.5096 88.6115 62.5096 88.1724C62.5096 87.7333 62.3719 87.382 62.0965 87.0307C62.0965 86.5038 61.6835 86.1525 61.1327 85.889ZM50.5309 93.266C50.5309 93.266 50.5309 93.1782 50.5309 93.266C50.3932 93.0025 50.2555 92.9147 50.2555 92.7391C50.2555 92.5634 50.2555 92.4756 50.2555 92.3C50.2555 92.4756 50.3932 92.5634 50.3932 92.7391C50.5309 92.9147 50.5309 93.0904 50.5309 93.266ZM53.1469 92.0365C53.0092 91.6852 52.8715 91.4218 52.5962 91.0705C52.3208 90.807 52.1831 90.5436 51.77 90.3679C51.77 90.2801 51.9077 90.2801 51.9077 90.1923L52.3208 89.9288C52.5962 89.7532 52.8715 89.4897 53.1469 89.2262C53.4223 88.9628 53.8353 88.6993 54.2484 88.4358C54.6615 88.1724 55.0745 87.9089 55.4876 87.7333C55.9006 87.4698 56.3137 87.2942 56.7268 87.2064C57.5529 86.9429 58.2413 86.9429 59.0674 87.2942C59.3428 87.4698 59.4805 87.5576 59.6182 87.8211C59.7559 87.9967 59.7559 88.2602 59.6182 88.5237C59.4805 88.7871 59.4805 89.0506 59.2051 89.3141C59.0674 89.5775 58.7921 89.841 58.5167 90.1044C58.2413 90.3679 57.9659 90.6314 57.8282 90.807C57.5529 91.0705 57.4152 91.2461 57.1398 91.3339C56.8644 91.5096 56.5891 91.773 56.176 92.0365C55.763 92.3 55.4876 92.5634 55.0745 92.8269C54.6615 93.0904 54.2484 93.266 53.8353 93.4416C53.56 93.5295 53.4223 93.6173 53.1469 93.7051C53.2846 93.4416 53.2846 93.266 53.2846 93.0904C53.2846 92.7391 53.2846 92.3878 53.1469 92.0365Z"
              fill="#605656"/>
        <path d="M79.445 92.3878L75.039 91.1583C74.9014 91.0705 74.626 91.1583 74.626 91.2461L73.5245 92.5634C73.5245 92.6512 73.5245 92.6512 73.5245 92.739C73.5245 92.8269 73.6622 92.8269 73.6622 92.8269L74.7637 93.0903L72.2853 96.6032C72.1476 96.7788 72.0099 97.0423 71.7346 97.3057C71.5969 97.5692 71.3215 97.8327 71.0461 98.0961C70.7708 98.3596 70.4954 98.6231 70.22 98.8865C69.9446 99.15 69.6693 99.3256 69.2562 99.5013C68.9808 99.6769 68.5678 99.7647 68.2924 99.7647C68.017 99.8526 67.604 99.7647 67.1909 99.6769C66.9155 99.5891 66.6402 99.5013 66.5025 99.3256C66.3648 99.15 66.2271 98.9743 66.2271 98.7987C66.2271 98.6231 66.2271 98.3596 66.2271 98.0961C66.2271 97.8327 66.3648 97.5692 66.5025 97.3936C66.6402 97.1301 66.7779 96.9545 66.9155 96.691C67.0532 96.4275 67.1909 96.2519 67.3286 96.0763C67.8794 95.3737 68.4301 94.6711 68.9808 93.9685C69.5316 93.3538 69.9446 92.6512 70.4954 92.0365L71.5969 92.2999C71.7346 92.2999 71.7346 92.2999 71.8723 92.2999C72.0099 92.2999 72.0099 92.2121 72.0099 92.2121L72.6984 90.8948C72.6984 90.807 72.6984 90.6313 72.5607 90.6313L68.1547 89.4019C68.017 89.314 67.7417 89.4019 67.7417 89.4897L66.6402 90.807C66.6402 90.8948 66.6402 90.8948 66.6402 90.9826C66.6402 91.0705 66.7779 91.0704 66.7779 91.0704L67.8794 91.3339C67.4663 91.9487 66.9155 92.5634 66.5025 93.1782C65.9517 93.8807 65.401 94.5833 64.9879 95.2859C64.7126 95.5493 64.5749 95.9006 64.2995 96.2519C64.0241 96.6032 63.8864 97.0423 63.7488 97.3936C63.6111 97.8327 63.4734 98.184 63.4734 98.5352C63.4734 98.9743 63.4734 99.3256 63.6111 99.6769C63.7488 100.028 64.0241 100.379 64.4372 100.643C64.8503 100.906 65.401 101.17 65.9517 101.346C66.6402 101.521 67.3286 101.609 67.8794 101.609H68.017C68.7055 101.609 69.3939 101.433 69.9446 101.258C70.4954 101.082 71.0461 100.819 71.5969 100.467C72.0099 100.116 72.5607 99.7647 72.8361 99.4134C73.2491 99.0622 73.5245 98.6231 73.9375 98.2718C74.2129 97.8327 74.4883 97.4814 74.7637 97.1301L77.242 93.5294L78.2058 93.7929C78.3435 93.7929 78.6189 93.7929 78.6189 93.6173L79.3073 92.2999C79.5827 92.5634 79.5827 92.3878 79.445 92.3878Z"
              fill="#605656"/>
        <path d="M91.286 104.068L90.0468 103.892L89.7715 95.6372L90.5976 95.725C90.7353 95.725 90.873 95.6372 91.0106 95.5494L91.4237 94.3199C91.4237 94.232 91.4237 94.232 91.4237 94.1442C91.4237 94.0564 91.286 94.0564 91.1483 94.0564L85.0901 93.4417C84.9525 93.4417 84.9525 93.4417 84.8148 93.4417C84.6771 93.4417 84.6771 93.5295 84.6771 93.6173L84.4017 94.9346C84.4017 95.0224 84.5394 95.1981 84.6771 95.1981L85.5032 95.2859L80.8219 102.663L79.5827 102.487C79.445 102.487 79.445 102.487 79.3073 102.487C79.1696 102.487 79.1696 102.575 79.1696 102.663L78.8943 104.156C78.8943 104.244 79.0319 104.419 79.1696 104.419L83.9887 105.034C84.1263 105.034 84.4017 104.946 84.4017 104.858L84.9525 103.541C84.9525 103.453 84.9525 103.453 84.9525 103.365C84.9525 103.278 84.8148 103.278 84.6771 103.278L83.7133 103.102L84.5394 101.609L87.1554 101.872V103.717L86.0539 103.541C85.9163 103.541 85.9163 103.541 85.7786 103.541C85.6409 103.541 85.6409 103.629 85.6409 103.717L85.3655 105.21C85.3655 105.298 85.5032 105.473 85.6409 105.473L90.4599 106.088C90.4599 106.088 90.4599 106.088 90.5976 106.088C90.7353 106.088 90.873 106 90.873 105.912L91.4237 104.507C91.5614 104.244 91.5614 104.156 91.286 104.068ZM87.4308 96.7788V100.028L85.7786 99.8526L87.4308 96.7788Z"
              fill="#605656"/>
        <path d="M107.808 102.224H105.743C105.605 102.224 105.605 102.224 105.468 102.312C105.468 102.312 105.33 102.399 105.33 102.487V103.98H102.026L101.75 96.5153L103.127 96.4275C103.265 96.4275 103.402 96.3397 103.402 96.164V94.7589C103.402 94.6711 103.265 94.5833 102.989 94.5833L97.7573 94.6711C97.6196 94.6711 97.4819 94.7589 97.4819 94.9345V96.3397C97.4819 96.4275 97.4819 96.4275 97.6196 96.5153C97.6196 96.5153 97.7573 96.6031 97.895 96.6031H98.9965L99.2718 104.068H98.1703C98.0326 104.068 98.0326 104.068 97.895 104.156C97.895 104.244 97.7573 104.244 97.7573 104.331L97.895 105.824C97.895 105.912 98.0326 106 98.1703 106L107.671 105.912C107.808 105.912 107.946 105.824 107.946 105.649V102.487C108.084 102.399 107.946 102.224 107.808 102.224Z"
              fill="#605656"/>
        <path d="M120.062 102.487C119.925 102.487 119.925 102.399 119.787 102.487L118.548 102.663L116.207 95.3737L117.309 95.1981C117.446 95.1981 117.446 95.1103 117.446 95.1103C117.446 95.0224 117.446 95.0224 117.446 94.9346L116.758 93.6173C116.758 93.5295 116.483 93.4417 116.345 93.4417L111.664 94.0564C111.526 94.0564 111.388 94.232 111.388 94.3199L111.801 95.8128C111.801 95.9006 111.939 95.9006 111.939 95.9885C112.077 95.9885 112.077 95.9885 112.214 95.9885L113.316 95.8128L115.794 103.102L114.693 103.278C114.555 103.278 114.555 103.365 114.417 103.365C114.417 103.453 114.417 103.453 114.417 103.541L114.968 104.946C114.968 105.034 115.106 105.122 115.243 105.122C115.243 105.122 115.243 105.122 115.381 105.122L120.2 104.331C120.338 104.331 120.476 104.156 120.476 104.068L120.062 102.663C120.2 102.575 120.062 102.487 120.062 102.487Z"
              fill="#605656"/>
        <path d="M133.969 99.3256C133.831 99.3256 133.831 99.3256 133.693 99.3256L132.454 99.6769L127.911 92.5634L129.15 92.2121L130.389 93.8807C130.389 93.9685 130.527 93.9685 130.664 93.9685C130.802 93.9685 130.802 93.9685 130.94 93.9685L132.592 93.3538C132.73 93.266 132.867 93.1782 132.73 93.0903L130.389 90.1044C130.251 90.0166 130.114 89.9288 129.976 90.0166L121.026 92.6512C120.889 92.7391 120.751 92.8269 120.889 92.9147L122.816 95.9884C122.816 96.0763 122.954 96.0763 122.954 96.0763C123.092 96.0763 123.092 96.0763 123.229 96.0763L125.019 95.5493C125.157 95.5493 125.157 95.4615 125.157 95.4615C125.157 95.3737 125.157 95.3737 125.157 95.2859L124.055 93.7051L125.432 93.266L130.114 100.204L129.15 100.467C129.012 100.467 129.012 100.555 129.012 100.555C129.012 100.643 129.012 100.643 129.012 100.731L129.976 102.048C129.976 102.136 130.114 102.136 130.251 102.136H130.389L134.933 100.819C135.07 100.731 135.208 100.643 135.07 100.555L134.382 99.2378C134.106 99.3256 133.969 99.3256 133.969 99.3256Z"
              fill="#605656"/>
        <path d="M150.078 94.8467L148.977 93.705C148.977 93.6172 148.839 93.6172 148.701 93.6172C148.564 93.6172 148.564 93.6172 148.426 93.6172L147.324 94.1441L145.259 92.2999L143.194 86.7671L144.158 86.2402C144.295 86.1524 144.295 86.0646 144.158 85.8889L142.643 84.7473C142.505 84.6594 142.368 84.6594 142.23 84.7473L138.237 86.5915C138.099 86.6793 138.099 86.7671 138.099 86.855L139.339 88.0845C139.339 88.1723 139.476 88.1723 139.614 88.1723C139.752 88.1723 139.752 88.1723 139.889 88.1723L140.715 87.821L142.23 91.1582L137.962 89.0505L138.65 88.6114C138.788 88.6114 138.788 88.5236 138.788 88.4357C138.788 88.3479 138.788 88.3479 138.65 88.2601L137.273 87.2063C137.136 87.1184 136.998 87.1184 136.86 87.2063L132.867 89.0505C132.73 89.1383 132.73 89.2261 132.73 89.314L133.969 90.5435C133.969 90.6313 134.106 90.6313 134.244 90.6313C134.382 90.6313 134.382 90.6313 134.52 90.6313L135.483 90.1043L142.781 93.1781L144.846 95.0223L144.02 95.4614C143.882 95.4614 143.882 95.5493 143.882 95.6371C143.882 95.7249 143.882 95.7249 143.882 95.8127L145.259 96.9544C145.259 97.0422 145.397 97.0422 145.534 97.0422C145.672 97.0422 145.672 97.0422 145.81 97.0422L149.803 95.1102C150.216 95.0223 150.216 94.9345 150.078 94.8467Z"
              fill="#605656"/>
        <path d="M21.7544 66.217C22.0298 66.217 22.3052 66.217 22.5806 66.3048V45.7547C23.1313 45.2277 23.8197 44.2617 23.8197 43.2078C23.8197 41.5392 22.1675 40.2219 22.1675 40.2219C22.1675 40.2219 20.5153 41.5392 20.5153 43.2078C20.5153 44.2617 21.2037 45.2277 21.7544 45.7547V47.5111C21.4791 46.9841 21.066 46.2816 20.2399 45.6668C18.45 44.4373 15.8339 44.1739 15.8339 44.1739C15.8339 44.1739 15.9716 45.8425 17.7615 47.072C19.1384 48.038 21.066 48.3893 21.7544 48.4771V50.6726C21.4791 50.1457 21.066 49.3553 20.2399 48.8284C18.45 47.5989 15.8339 47.3354 15.8339 47.3354C15.8339 47.3354 15.9716 49.004 17.7615 50.2335C19.1384 51.1996 21.066 51.5508 21.7544 51.6387V53.8342C21.4791 53.3073 21.066 52.5169 20.2399 51.9899C18.45 50.7605 15.8339 50.497 15.8339 50.497C15.8339 50.497 15.9716 52.1656 17.7615 53.3951C19.1384 54.3611 21.066 54.7124 21.7544 54.8002V56.9958C21.4791 56.4688 21.066 55.6784 20.2399 55.1515C18.45 53.922 15.8339 53.6585 15.8339 53.6585C15.8339 53.6585 15.9716 55.3272 17.7615 56.5566C19.1384 57.5227 21.066 57.874 21.7544 57.9618V60.1573C21.4791 59.6304 21.066 58.84 20.2399 58.3131C18.45 57.0836 15.8339 56.8201 15.8339 56.8201C15.8339 56.8201 15.9716 58.4887 17.7615 59.7182C19.1384 60.6842 21.066 61.0355 21.7544 61.1233V63.231C21.4791 62.7041 21.066 61.9137 20.2399 61.3868C18.45 60.1573 15.8339 59.8938 15.8339 59.8938C15.8339 59.8938 15.9716 61.5624 17.7615 62.7919C19.1384 63.758 21.066 64.1093 21.7544 64.1971V66.217V66.217Z"
              fill="white"/>
        <path d="M26.9865 62.8798C28.7764 61.6503 28.9141 59.9817 28.9141 59.9817C28.9141 59.9817 26.2981 60.2452 24.5082 61.4746C22.7182 62.7041 22.5806 64.3727 22.5806 64.3727C22.5806 64.3727 25.3343 64.0215 26.9865 62.8798Z"
              fill="white"/>
        <path d="M26.9865 59.7182C28.7764 58.4887 28.9141 56.8201 28.9141 56.8201C28.9141 56.8201 26.2981 57.0835 24.5082 58.313C22.7182 59.5425 22.5806 61.2111 22.5806 61.2111C22.5806 61.2111 25.3343 60.8598 26.9865 59.7182Z"
              fill="white"/>
        <path d="M26.9865 56.5565C28.7764 55.3271 28.9141 53.6584 28.9141 53.6584C28.9141 53.6584 26.2981 53.9219 24.5082 55.1514C22.7182 56.3809 22.5806 58.0495 22.5806 58.0495C22.5806 58.0495 25.3343 57.6982 26.9865 56.5565Z"
              fill="white"/>
        <path d="M26.9865 53.3952C28.7764 52.1657 28.9141 50.4971 28.9141 50.4971C28.9141 50.4971 26.2981 50.7605 24.5082 51.99C22.7182 53.2195 22.5806 54.8881 22.5806 54.8881C22.5806 54.8881 25.3343 54.6247 26.9865 53.3952Z"
              fill="white"/>
        <path d="M26.9865 50.2335C28.7764 49.004 28.9141 47.3354 28.9141 47.3354C28.9141 47.3354 26.2981 47.5989 24.5082 48.8284C22.7182 50.0579 22.5806 51.7265 22.5806 51.7265C22.5806 51.7265 25.3343 51.463 26.9865 50.2335Z"
              fill="white"/>
        <path d="M26.9865 47.0719C28.7764 45.8424 28.9141 44.1738 28.9141 44.1738C28.9141 44.1738 26.2981 44.4373 24.5082 45.6668C22.7182 46.8963 22.5806 48.5649 22.5806 48.5649C22.5806 48.5649 25.3343 48.3014 26.9865 47.0719Z"
              fill="white"/>
        <path d="M171.006 66.217C171.282 66.217 171.557 66.217 171.833 66.3048V45.7547C172.383 45.2277 173.072 44.2617 173.072 43.2078C173.072 41.5392 171.419 40.2219 171.419 40.2219C171.419 40.2219 169.767 41.5392 169.767 43.2078C169.767 44.2617 170.456 45.2277 171.006 45.7547V47.5111C170.731 46.9841 170.318 46.2816 169.492 45.6668C167.702 44.4373 165.086 44.1739 165.086 44.1739C165.086 44.1739 165.224 45.8425 167.014 47.072C168.39 48.038 170.318 48.3893 171.006 48.4771V50.6726C170.731 50.1457 170.318 49.3553 169.492 48.8284C167.702 47.5989 165.086 47.3354 165.086 47.3354C165.086 47.3354 165.224 49.004 167.014 50.2335C168.39 51.1996 170.318 51.5508 171.006 51.6387V53.8342C170.731 53.3073 170.318 52.5169 169.492 51.9899C167.702 50.7605 165.086 50.497 165.086 50.497C165.086 50.497 165.224 52.1656 167.014 53.3951C168.39 54.3611 170.318 54.7124 171.006 54.8002V56.9958C170.731 56.4688 170.318 55.6784 169.492 55.1515C167.702 53.922 165.086 53.6585 165.086 53.6585C165.086 53.6585 165.224 55.3272 167.014 56.5566C168.39 57.5227 170.318 57.874 171.006 57.9618V60.1573C170.731 59.6304 170.318 58.84 169.492 58.3131C167.702 57.0836 165.086 56.8201 165.086 56.8201C165.086 56.8201 165.224 58.4887 167.014 59.7182C168.39 60.6842 170.318 61.0355 171.006 61.1233V63.231C170.731 62.7041 170.318 61.9137 169.492 61.3868C167.702 60.1573 165.086 59.8938 165.086 59.8938C165.086 59.8938 165.224 61.5624 167.014 62.7919C168.39 63.758 170.318 64.1093 171.006 64.1971V66.217V66.217Z"
              fill="white"/>
        <path d="M176.238 62.8798C178.028 61.6503 178.166 59.9817 178.166 59.9817C178.166 59.9817 175.55 60.2452 173.76 61.4746C171.97 62.7041 171.833 64.3727 171.833 64.3727C171.833 64.3727 174.586 64.0215 176.238 62.8798Z"
              fill="white"/>
        <path d="M176.238 59.7182C178.028 58.4887 178.166 56.8201 178.166 56.8201C178.166 56.8201 175.55 57.0835 173.76 58.313C171.97 59.5425 171.833 61.2111 171.833 61.2111C171.833 61.2111 174.586 60.8598 176.238 59.7182Z"
              fill="white"/>
        <path d="M176.238 56.5565C178.028 55.3271 178.166 53.6584 178.166 53.6584C178.166 53.6584 175.55 53.9219 173.76 55.1514C171.97 56.3809 171.833 58.0495 171.833 58.0495C171.833 58.0495 174.586 57.6982 176.238 56.5565Z"
              fill="white"/>
        <path d="M176.238 53.3952C178.028 52.1657 178.166 50.4971 178.166 50.4971C178.166 50.4971 175.55 50.7605 173.76 51.99C171.97 53.2195 171.833 54.8881 171.833 54.8881C171.833 54.8881 174.586 54.6247 176.238 53.3952Z"
              fill="white"/>
        <path d="M176.238 50.2335C178.028 49.004 178.166 47.3354 178.166 47.3354C178.166 47.3354 175.55 47.5989 173.76 48.8284C171.97 50.0579 171.833 51.7265 171.833 51.7265C171.833 51.7265 174.586 51.463 176.238 50.2335Z"
              fill="white"/>
        <path d="M176.238 47.0719C178.028 45.8424 178.166 44.1738 178.166 44.1738C178.166 44.1738 175.55 44.4373 173.76 45.6668C171.97 46.8963 171.833 48.5649 171.833 48.5649C171.833 48.5649 174.586 48.3014 176.238 47.0719Z"
              fill="white"/>
    </g>
    <defs>
        <clipPath id="clip0_39_82">
            <rect width="194" height="106" fill="white"/>
        </clipPath>
    </defs>
</svg>
